<svg width="300" height="80" viewBox="0 0 300 80" fill="none" xmlns="http://www.w3.org/2000/svg">
    <g transform="translate(10, 10)">
        <path d="M29.855 0.001A30 30 0 0 0 0 30.001a30 30 0 0 0 29.855 30 30 30 0 0 0 30.145-30A30 30 0 0 0 29.855 0.001zm0.24 7.42a22.58 22.58 0 0 1 22.485 22.58 22.58 22.58 0 0 1-45.158 0 22.58 22.58 0 0 1 22.673-22.58z" fill="#7c3aed"/>
        <path d="M29.835 11.906a18.1 18.1 0 0 0-17.932 18.096 18.1 18.1 0 0 0 36.194 0 18.1 18.1 0 0 0-18.262-18.096zm-0.014 7.553a10.54 10.54 0 0 1 10.725 10.543 10.54 10.54 0 0 1-21.09 0 10.54 10.54 0 0 1 10.365-10.543z" fill="#7c3aed"/>
    </g>
    <text x="85" y="53" font-family="GurmukhiMN-Bold, sans-serif" font-weight="bold" font-size="40" fill="#1f2937">Awssat</text>
</svg>
