<?xml version="1.0" encoding="utf-8"?>
<svg viewBox="0 0 1440 909" xmlns="http://www.w3.org/2000/svg">
  <clipPath id="b">
    <path d="M 66.107 182.684 L 203.79 182.684 L 203.79 320.367 L 66.107 320.367 Z" overflow="visible"/>
  </clipPath>
  <path clip-path="url(#b)" d="M 169.369 182.684 L 100.527 182.684 C 91.004 182.684 83.317 190.371 83.317 199.894 L 83.317 303.157 C 83.317 312.68 91.004 320.367 100.527 320.367 L 169.369 320.367 C 178.892 320.367 186.58 312.68 186.58 303.157 L 186.58 199.894 C 186.58 190.371 178.892 182.684 169.369 182.684 Z M 146.422 308.894 L 123.475 308.894 L 123.475 303.157 L 146.422 303.157 L 146.422 308.894 Z M 176.54 291.683 L 93.356 291.683 L 93.356 199.894 L 176.54 199.894 L 176.54 291.683 Z" style="fill: rgb(243, 243, 243);"/>
  <path d="M 1116.105 121.632 L 1178 121.632 L 1178 183.526 L 1116.105 183.526 Z" style="" fill="none"/>
  <path d="M 1165.105 129.368 L 1154.325 129.368 C 1153.242 126.377 1150.405 124.21 1147.053 124.21 C 1143.7 124.21 1140.863 126.377 1139.78 129.368 L 1129 129.368 C 1126.163 129.368 1123.842 131.689 1123.842 134.526 L 1123.842 170.632 C 1123.842 173.468 1126.163 175.789 1129 175.789 L 1165.105 175.789 C 1167.942 175.789 1170.263 173.468 1170.263 170.632 L 1170.263 134.526 C 1170.263 131.689 1167.942 129.368 1165.105 129.368 Z M 1147.053 129.368 C 1148.471 129.368 1149.632 130.529 1149.632 131.947 C 1149.632 133.366 1148.471 134.526 1147.053 134.526 C 1145.634 134.526 1144.474 133.366 1144.474 131.947 C 1144.474 130.529 1145.634 129.368 1147.053 129.368 Z M 1141.895 165.474 L 1131.579 155.158 L 1135.215 151.522 L 1141.895 158.175 L 1158.89 141.18 L 1162.526 144.842 L 1141.895 165.474 Z" style="fill: rgb(240, 240, 240);"/>
  <path d="M 194 100.579 L 264.315 100.579 L 264.315 170.895 L 194 170.895 Z" style="fill-opacity: 0.76;" fill="none"/>
  <path d="M 229.128 106.439 C 212.956 106.439 199.859 119.564 199.859 135.737 C 199.859 151.91 212.956 165.035 229.128 165.035 C 245.33 165.035 258.456 151.91 258.456 135.737 C 258.456 119.564 245.33 106.439 229.128 106.439 Z M 249.432 124.018 L 240.789 124.018 C 239.851 120.355 238.504 116.84 236.746 113.588 C 242.137 115.433 246.619 119.184 249.432 124.018 Z M 229.158 112.416 C 231.589 115.931 233.494 119.828 234.753 124.018 L 223.562 124.018 C 224.821 119.828 226.726 115.931 229.158 112.416 Z M 206.481 141.597 C 206.012 139.722 205.719 137.759 205.719 135.737 C 205.719 133.715 206.012 131.752 206.481 129.877 L 216.383 129.877 C 216.149 131.811 215.973 133.745 215.973 135.737 C 215.973 137.729 216.149 139.663 216.383 141.597 L 206.481 141.597 Z M 208.883 147.456 L 217.526 147.456 C 218.464 151.119 219.811 154.634 221.569 157.886 C 216.178 156.041 211.696 152.32 208.883 147.456 Z M 217.526 124.018 L 208.883 124.018 C 211.696 119.154 216.178 115.433 221.569 113.588 C 219.811 116.84 218.464 120.355 217.526 124.018 Z M 229.158 159.058 C 226.726 155.543 224.821 151.646 223.562 147.456 L 234.753 147.456 C 233.494 151.646 231.589 155.543 229.158 159.058 Z M 236.013 141.597 L 222.302 141.597 C 222.038 139.663 221.833 137.729 221.833 135.737 C 221.833 133.745 222.038 131.782 222.302 129.877 L 236.013 129.877 C 236.277 131.782 236.482 133.745 236.482 135.737 C 236.482 137.729 236.277 139.663 236.013 141.597 Z M 236.746 157.886 C 238.504 154.634 239.851 151.119 240.789 147.456 L 249.432 147.456 C 246.619 152.291 242.137 156.041 236.746 157.886 Z M 241.932 141.597 C 242.166 139.663 242.342 137.729 242.342 135.737 C 242.342 133.745 242.166 131.811 241.932 129.877 L 251.834 129.877 C 252.303 131.752 252.596 133.715 252.596 135.737 C 252.596 137.759 252.303 139.722 251.834 141.597 L 241.932 141.597 Z" style="fill-opacity: 0.76; fill: rgb(217, 217, 217);"/>
  <path d="M 1122.737 611.158 L 1395.158 611.158 L 1395.158 883.579 L 1122.737 883.579 Z" fill="none" style=""/>
  <path d="M 1195.008 716.7 C 1187.29 677.539 1152.897 648.141 1111.579 648.141 C 1078.775 648.141 1050.285 666.756 1036.096 693.998 C 1001.93 697.63 975.369 726.575 975.369 761.649 C 975.369 799.221 1005.903 829.755 1043.474 829.755 L 1191.035 829.755 C 1222.364 829.755 1247.79 804.329 1247.79 773 C 1247.79 743.034 1224.521 718.743 1195.008 716.7 Z M 1191.035 807.053 L 1043.474 807.053 C 1018.389 807.053 998.071 786.735 998.071 761.649 C 998.071 736.564 1018.389 716.246 1043.474 716.246 L 1051.533 716.246 C 1059.025 690.025 1082.975 670.842 1111.579 670.842 C 1146.086 670.842 1174.009 698.765 1174.009 733.272 L 1174.009 738.948 L 1191.035 738.948 C 1209.878 738.948 1225.088 754.158 1225.088 773 C 1225.088 791.843 1209.878 807.053 1191.035 807.053 Z" style="fill: rgb(243, 243, 243);"/>
  <path d="M 446.947 581.684 L 675.158 581.684 L 675.158 809.895 L 446.947 809.895 Z" style="" fill="none"/>
  <path d="M 112.632 600.702 C 57.818 600.702 13.333 645.187 13.333 700 C 13.333 754.813 57.818 799.298 112.632 799.298 C 167.444 799.298 211.929 754.813 211.929 700 C 211.929 645.187 167.444 600.702 112.632 600.702 Z M 102.701 778.743 C 63.478 773.878 33.192 740.514 33.192 700 C 33.192 693.843 33.986 687.985 35.278 682.226 L 82.841 729.79 L 82.841 739.72 C 82.841 750.642 91.778 759.579 102.701 759.579 L 102.701 778.743 Z M 171.217 753.522 C 168.635 745.479 161.288 739.72 152.35 739.72 L 142.421 739.72 L 142.421 709.93 C 142.421 704.468 137.953 700 132.49 700 L 72.912 700 L 72.912 680.141 L 92.771 680.141 C 98.233 680.141 102.701 675.672 102.701 670.21 L 102.701 650.351 L 122.561 650.351 C 133.484 650.351 142.421 641.414 142.421 630.491 L 142.421 626.419 C 171.516 638.237 192.07 666.735 192.07 700 C 192.07 720.654 184.126 739.421 171.217 753.522 Z" style="fill: rgb(239, 239, 239);"/>
</svg>